# xmcd
#
# Track frame offsets:
#      183
#      21958
#      41135
#      58688
#      78815
#      97163
#      116085
#      135498
#      151198
#      174658
# 
# Disc length: 2659 seconds
#
# Revision: 2
# Processed by: cddbd v1.4PL0 Copyright (c) Steve Scherf et al.
#
# Submitted via: FreeRIP 1.21
#
DISCID=7f0a610a
DTITLE=Lucio Battisti - Una giornata uggiosa
DYEAR=1900
DGENRE=country
TTITLE0=Il monolocale
TTITLE1=Arrivederci a questa sera
TTITLE2=Gelosa cara
TTITLE3=Orgoglio e dignità
TTITLE4=Una vita viva
TTITLE5=Amore mio di provincia
TTITLE6=Questo amore
TTITLE7=Perchè non sei una mela
TTITLE8=Una giornata uggiosa
TTITLE9=Con il nastro rosa
EXTD=
EXTT0=
EXTT1=
EXTT2=
EXTT3=
EXTT4=
EXTT5=
EXTT6=
EXTT7=
EXTT8=
EXTT9=
PLAYORDER=
